<mxfile host="app.diagrams.net" modified="2024-03-11T07:07:26.232Z" agent="Mozilla/5.0 (Windows NT 10.0; Win64; x64) AppleWebKit/537.36 (KHTML, like Gecko) Chrome/122.0.0.0 Safari/537.36" etag="EM9BkbkJbwXa-_UIu3Nv" version="24.0.4" type="github">
  <diagram id="R2lEEEUBdFMjLlhIrx00" name="Page-1">
    <mxGraphModel dx="1120" dy="434" grid="1" gridSize="10" guides="1" tooltips="1" connect="1" arrows="1" fold="1" page="1" pageScale="1" pageWidth="850" pageHeight="1100" math="0" shadow="0" extFonts="Permanent Marker^https://fonts.googleapis.com/css?family=Permanent+Marker">
      <root>
        <mxCell id="0" />
        <mxCell id="1" parent="0" />
        <mxCell id="DeW3jYokZq_6ZPRdX_j8-1" value="&lt;div&gt;&lt;font face=&quot;Times New Roman&quot; style=&quot;font-size: 18px;&quot;&gt;&lt;br&gt;&lt;/font&gt;&lt;/div&gt;&lt;font face=&quot;Times New Roman&quot; style=&quot;font-size: 18px;&quot;&gt;&lt;div&gt;&lt;font face=&quot;Times New Roman&quot; style=&quot;font-size: 18px;&quot;&gt;&lt;br&gt;&lt;/font&gt;&lt;/div&gt;Log in Process&lt;/font&gt;" style="ellipse;whiteSpace=wrap;html=1;" vertex="1" parent="1">
          <mxGeometry x="360" y="370" width="160" height="210" as="geometry" />
        </mxCell>
        <mxCell id="DeW3jYokZq_6ZPRdX_j8-3" value="&lt;font face=&quot;Times New Roman&quot; style=&quot;font-size: 18px;&quot;&gt;1.0&lt;/font&gt;" style="text;html=1;align=center;verticalAlign=middle;resizable=0;points=[];autosize=1;strokeColor=none;fillColor=none;" vertex="1" parent="1">
          <mxGeometry x="412" y="410" width="50" height="40" as="geometry" />
        </mxCell>
        <mxCell id="DeW3jYokZq_6ZPRdX_j8-4" value="&lt;font face=&quot;Times New Roman&quot; style=&quot;font-size: 18px;&quot;&gt;Admin&lt;/font&gt;" style="rounded=0;whiteSpace=wrap;html=1;" vertex="1" parent="1">
          <mxGeometry x="63" y="400" width="120" height="60" as="geometry" />
        </mxCell>
        <mxCell id="DeW3jYokZq_6ZPRdX_j8-5" value="&lt;font face=&quot;Times New Roman&quot; style=&quot;font-size: 18px;&quot;&gt;User&lt;/font&gt;" style="rounded=0;whiteSpace=wrap;html=1;" vertex="1" parent="1">
          <mxGeometry x="60" y="520" width="120" height="60" as="geometry" />
        </mxCell>
        <mxCell id="DeW3jYokZq_6ZPRdX_j8-6" value="" style="endArrow=none;html=1;rounded=0;" edge="1" parent="1">
          <mxGeometry width="50" height="50" relative="1" as="geometry">
            <mxPoint x="365" y="440" as="sourcePoint" />
            <mxPoint x="515" y="440" as="targetPoint" />
          </mxGeometry>
        </mxCell>
        <mxCell id="DeW3jYokZq_6ZPRdX_j8-7" value="" style="endArrow=classic;html=1;rounded=0;exitX=1;exitY=0.25;exitDx=0;exitDy=0;entryX=0.063;entryY=0.214;entryDx=0;entryDy=0;entryPerimeter=0;" edge="1" parent="1">
          <mxGeometry width="50" height="50" relative="1" as="geometry">
            <mxPoint x="183" y="431" as="sourcePoint" />
            <mxPoint x="370.0799999999999" y="430.94000000000005" as="targetPoint" />
          </mxGeometry>
        </mxCell>
        <mxCell id="DeW3jYokZq_6ZPRdX_j8-8" value="" style="endArrow=classic;html=1;rounded=0;exitX=1;exitY=0.367;exitDx=0;exitDy=0;exitPerimeter=0;" edge="1" parent="1" source="DeW3jYokZq_6ZPRdX_j8-5">
          <mxGeometry width="50" height="50" relative="1" as="geometry">
            <mxPoint x="200" y="540" as="sourcePoint" />
            <mxPoint x="370" y="542" as="targetPoint" />
          </mxGeometry>
        </mxCell>
        <mxCell id="DeW3jYokZq_6ZPRdX_j8-9" value="&lt;font face=&quot;Times New Roman&quot; style=&quot;font-size: 18px;&quot;&gt;Username &amp;amp; Password&lt;/font&gt;" style="text;html=1;align=center;verticalAlign=middle;resizable=0;points=[];autosize=1;strokeColor=none;fillColor=none;" vertex="1" parent="1">
          <mxGeometry x="178" y="513" width="190" height="40" as="geometry" />
        </mxCell>
        <mxCell id="DeW3jYokZq_6ZPRdX_j8-10" value="&lt;font face=&quot;Times New Roman&quot; style=&quot;font-size: 18px;&quot;&gt;Username &amp;amp; Password&lt;/font&gt;" style="text;html=1;align=center;verticalAlign=middle;resizable=0;points=[];autosize=1;strokeColor=none;fillColor=none;" vertex="1" parent="1">
          <mxGeometry x="178" y="401" width="190" height="40" as="geometry" />
        </mxCell>
        <mxCell id="DeW3jYokZq_6ZPRdX_j8-12" value="" style="endArrow=classic;html=1;rounded=0;exitX=0.031;exitY=0.333;exitDx=0;exitDy=0;exitPerimeter=0;" edge="1" parent="1">
          <mxGeometry width="50" height="50" relative="1" as="geometry">
            <mxPoint x="363.96000000000004" y="440.93000000000006" as="sourcePoint" />
            <mxPoint x="190" y="441" as="targetPoint" />
          </mxGeometry>
        </mxCell>
        <mxCell id="DeW3jYokZq_6ZPRdX_j8-13" value="" style="endArrow=classic;html=1;rounded=0;exitX=0.206;exitY=0.905;exitDx=0;exitDy=0;exitPerimeter=0;" edge="1" parent="1">
          <mxGeometry width="50" height="50" relative="1" as="geometry">
            <mxPoint x="385.96000000000004" y="552.05" as="sourcePoint" />
            <mxPoint x="183" y="552" as="targetPoint" />
          </mxGeometry>
        </mxCell>
        <mxCell id="DeW3jYokZq_6ZPRdX_j8-14" value="&lt;font face=&quot;Times New Roman&quot; style=&quot;font-size: 18px;&quot;&gt;Access&lt;/font&gt;" style="text;html=1;align=center;verticalAlign=middle;resizable=0;points=[];autosize=1;strokeColor=none;fillColor=none;" vertex="1" parent="1">
          <mxGeometry x="230" y="430" width="70" height="40" as="geometry" />
        </mxCell>
        <mxCell id="DeW3jYokZq_6ZPRdX_j8-15" value="&lt;font face=&quot;Times New Roman&quot; style=&quot;font-size: 18px;&quot;&gt;Access&lt;/font&gt;" style="text;html=1;align=center;verticalAlign=middle;resizable=0;points=[];autosize=1;strokeColor=none;fillColor=none;" vertex="1" parent="1">
          <mxGeometry x="240" y="543" width="70" height="40" as="geometry" />
        </mxCell>
        <mxCell id="DeW3jYokZq_6ZPRdX_j8-16" value="" style="endArrow=none;html=1;rounded=0;" edge="1" parent="1">
          <mxGeometry width="50" height="50" relative="1" as="geometry">
            <mxPoint x="710" y="400" as="sourcePoint" />
            <mxPoint x="800" y="400" as="targetPoint" />
          </mxGeometry>
        </mxCell>
        <mxCell id="DeW3jYokZq_6ZPRdX_j8-17" value="" style="endArrow=none;html=1;rounded=0;" edge="1" parent="1">
          <mxGeometry width="50" height="50" relative="1" as="geometry">
            <mxPoint x="710" y="565" as="sourcePoint" />
            <mxPoint x="800" y="565" as="targetPoint" />
          </mxGeometry>
        </mxCell>
        <mxCell id="DeW3jYokZq_6ZPRdX_j8-18" value="" style="endArrow=none;html=1;rounded=0;" edge="1" parent="1">
          <mxGeometry width="50" height="50" relative="1" as="geometry">
            <mxPoint x="710" y="607" as="sourcePoint" />
            <mxPoint x="800" y="607" as="targetPoint" />
          </mxGeometry>
        </mxCell>
        <mxCell id="DeW3jYokZq_6ZPRdX_j8-20" value="" style="endArrow=none;html=1;rounded=0;" edge="1" parent="1">
          <mxGeometry width="50" height="50" relative="1" as="geometry">
            <mxPoint x="710" y="440" as="sourcePoint" />
            <mxPoint x="800" y="440" as="targetPoint" />
          </mxGeometry>
        </mxCell>
        <mxCell id="DeW3jYokZq_6ZPRdX_j8-21" value="" style="endArrow=none;html=1;rounded=0;" edge="1" parent="1">
          <mxGeometry width="50" height="50" relative="1" as="geometry">
            <mxPoint x="710" y="480" as="sourcePoint" />
            <mxPoint x="800" y="480" as="targetPoint" />
          </mxGeometry>
        </mxCell>
        <mxCell id="DeW3jYokZq_6ZPRdX_j8-22" value="" style="endArrow=none;html=1;rounded=0;" edge="1" parent="1">
          <mxGeometry width="50" height="50" relative="1" as="geometry">
            <mxPoint x="710" y="520" as="sourcePoint" />
            <mxPoint x="800" y="520" as="targetPoint" />
          </mxGeometry>
        </mxCell>
        <mxCell id="DeW3jYokZq_6ZPRdX_j8-23" value="&lt;font face=&quot;Times New Roman&quot; style=&quot;font-size: 18px;&quot;&gt;Login&lt;/font&gt;" style="text;html=1;align=center;verticalAlign=middle;resizable=0;points=[];autosize=1;strokeColor=none;fillColor=none;" vertex="1" parent="1">
          <mxGeometry x="719" y="481" width="70" height="40" as="geometry" />
        </mxCell>
        <mxCell id="DeW3jYokZq_6ZPRdX_j8-24" value="" style="endArrow=classic;html=1;rounded=0;" edge="1" parent="1">
          <mxGeometry width="50" height="50" relative="1" as="geometry">
            <mxPoint x="714" y="510" as="sourcePoint" />
            <mxPoint x="530" y="510" as="targetPoint" />
          </mxGeometry>
        </mxCell>
        <mxCell id="DeW3jYokZq_6ZPRdX_j8-25" value="" style="endArrow=classic;html=1;rounded=0;" edge="1" parent="1">
          <mxGeometry width="50" height="50" relative="1" as="geometry">
            <mxPoint x="540" y="497" as="sourcePoint" />
            <mxPoint x="710" y="497" as="targetPoint" />
          </mxGeometry>
        </mxCell>
        <mxCell id="DeW3jYokZq_6ZPRdX_j8-26" value="&lt;font face=&quot;Times New Roman&quot; style=&quot;font-size: 14px;&quot;&gt;Username &amp;amp; Password&lt;/font&gt;" style="text;html=1;align=center;verticalAlign=middle;resizable=0;points=[];autosize=1;strokeColor=none;fillColor=none;" vertex="1" parent="1">
          <mxGeometry x="544" y="473" width="150" height="30" as="geometry" />
        </mxCell>
        <mxCell id="DeW3jYokZq_6ZPRdX_j8-27" value="&lt;font face=&quot;Times New Roman&quot; style=&quot;font-size: 18px;&quot;&gt;Validation&lt;/font&gt;" style="text;html=1;align=center;verticalAlign=middle;resizable=0;points=[];autosize=1;strokeColor=none;fillColor=none;" vertex="1" parent="1">
          <mxGeometry x="574" y="503" width="100" height="40" as="geometry" />
        </mxCell>
        <mxCell id="DeW3jYokZq_6ZPRdX_j8-28" value="&lt;font face=&quot;Times New Roman&quot; style=&quot;font-size: 18px;&quot;&gt;Food&lt;/font&gt;" style="text;html=1;align=center;verticalAlign=middle;resizable=0;points=[];autosize=1;strokeColor=none;fillColor=none;" vertex="1" parent="1">
          <mxGeometry x="723" y="401" width="60" height="40" as="geometry" />
        </mxCell>
        <mxCell id="DeW3jYokZq_6ZPRdX_j8-29" value="&lt;font face=&quot;Times New Roman&quot; style=&quot;font-size: 18px;&quot;&gt;Food Details&lt;/font&gt;" style="text;html=1;align=center;verticalAlign=middle;resizable=0;points=[];autosize=1;strokeColor=none;fillColor=none;" vertex="1" parent="1">
          <mxGeometry x="170" y="250" width="120" height="40" as="geometry" />
        </mxCell>
        <mxCell id="DeW3jYokZq_6ZPRdX_j8-30" value="" style="endArrow=classic;html=1;rounded=0;" edge="1" parent="1">
          <mxGeometry width="50" height="50" relative="1" as="geometry">
            <mxPoint x="114" y="402" as="sourcePoint" />
            <mxPoint x="394" y="381" as="targetPoint" />
            <Array as="points">
              <mxPoint x="114" y="282" />
              <mxPoint x="394" y="281" />
            </Array>
          </mxGeometry>
        </mxCell>
        <mxCell id="DeW3jYokZq_6ZPRdX_j8-31" value="" style="endArrow=classic;html=1;rounded=0;" edge="1" parent="1">
          <mxGeometry width="50" height="50" relative="1" as="geometry">
            <mxPoint x="473" y="380" as="sourcePoint" />
            <mxPoint x="753" y="400" as="targetPoint" />
            <Array as="points">
              <mxPoint x="473" y="281" />
              <mxPoint x="753" y="280" />
            </Array>
          </mxGeometry>
        </mxCell>
        <mxCell id="DeW3jYokZq_6ZPRdX_j8-32" value="&lt;font face=&quot;Times New Roman&quot; style=&quot;font-size: 18px;&quot;&gt;Food Details&lt;/font&gt;" style="text;html=1;align=center;verticalAlign=middle;resizable=0;points=[];autosize=1;strokeColor=none;fillColor=none;" vertex="1" parent="1">
          <mxGeometry x="574" y="250" width="120" height="40" as="geometry" />
        </mxCell>
        <mxCell id="DeW3jYokZq_6ZPRdX_j8-33" value="" style="endArrow=classic;html=1;rounded=0;entryX=0.756;entryY=0.076;entryDx=0;entryDy=0;entryPerimeter=0;exitX=0.3;exitY=-0.1;exitDx=0;exitDy=0;exitPerimeter=0;" edge="1" parent="1">
          <mxGeometry width="50" height="50" relative="1" as="geometry">
            <mxPoint x="743" y="399" as="sourcePoint" />
            <mxPoint x="482.96000000000004" y="387.96000000000004" as="targetPoint" />
            <Array as="points">
              <mxPoint x="742" y="292" />
              <mxPoint x="483" y="292" />
            </Array>
          </mxGeometry>
        </mxCell>
        <mxCell id="DeW3jYokZq_6ZPRdX_j8-34" value="" style="endArrow=classic;html=1;rounded=0;exitX=0.3;exitY=-0.1;exitDx=0;exitDy=0;exitPerimeter=0;" edge="1" parent="1">
          <mxGeometry width="50" height="50" relative="1" as="geometry">
            <mxPoint x="388.04" y="394" as="sourcePoint" />
            <mxPoint x="128" y="394" as="targetPoint" />
            <Array as="points">
              <mxPoint x="387.04" y="287" />
              <mxPoint x="128.04000000000002" y="287" />
            </Array>
          </mxGeometry>
        </mxCell>
        <mxCell id="DeW3jYokZq_6ZPRdX_j8-35" value="&lt;font face=&quot;Times New Roman&quot; style=&quot;font-size: 18px;&quot;&gt;Acknowldgement&lt;/font&gt;" style="text;html=1;align=center;verticalAlign=middle;resizable=0;points=[];autosize=1;strokeColor=none;fillColor=none;" vertex="1" parent="1">
          <mxGeometry x="165" y="279" width="150" height="40" as="geometry" />
        </mxCell>
        <mxCell id="DeW3jYokZq_6ZPRdX_j8-36" value="&lt;font style=&quot;font-size: 18px;&quot; face=&quot;Times New Roman&quot;&gt;Cart&lt;/font&gt;" style="text;html=1;align=center;verticalAlign=middle;resizable=0;points=[];autosize=1;strokeColor=none;fillColor=none;" vertex="1" parent="1">
          <mxGeometry x="729" y="566" width="50" height="40" as="geometry" />
        </mxCell>
        <mxCell id="DeW3jYokZq_6ZPRdX_j8-37" value="" style="endArrow=classic;html=1;rounded=0;exitX=0.75;exitY=1;exitDx=0;exitDy=0;entryX=0.288;entryY=0.967;entryDx=0;entryDy=0;entryPerimeter=0;" edge="1" parent="1" source="DeW3jYokZq_6ZPRdX_j8-5" target="DeW3jYokZq_6ZPRdX_j8-1">
          <mxGeometry width="50" height="50" relative="1" as="geometry">
            <mxPoint x="114.48999999999997" y="525.63" as="sourcePoint" />
            <mxPoint x="405.55" y="521" as="targetPoint" />
            <Array as="points">
              <mxPoint x="150" y="615" />
              <mxPoint x="255" y="615" />
              <mxPoint x="405.55" y="615" />
            </Array>
          </mxGeometry>
        </mxCell>
        <mxCell id="DeW3jYokZq_6ZPRdX_j8-39" value="" style="endArrow=classic;html=1;rounded=0;exitX=0.319;exitY=0.976;exitDx=0;exitDy=0;exitPerimeter=0;" edge="1" parent="1">
          <mxGeometry width="50" height="50" relative="1" as="geometry">
            <mxPoint x="411.03999999999996" y="573.96" as="sourcePoint" />
            <mxPoint x="140" y="580" as="targetPoint" />
            <Array as="points">
              <mxPoint x="412" y="622" />
              <mxPoint x="140" y="622" />
            </Array>
          </mxGeometry>
        </mxCell>
        <mxCell id="DeW3jYokZq_6ZPRdX_j8-41" value="&lt;font face=&quot;Times New Roman&quot; style=&quot;font-size: 18px;&quot;&gt;Order Food&lt;/font&gt;" style="text;html=1;align=center;verticalAlign=middle;resizable=0;points=[];autosize=1;strokeColor=none;fillColor=none;" vertex="1" parent="1">
          <mxGeometry x="205" y="583" width="110" height="40" as="geometry" />
        </mxCell>
        <mxCell id="DeW3jYokZq_6ZPRdX_j8-42" value="&lt;font face=&quot;Times New Roman&quot; style=&quot;font-size: 18px;&quot;&gt;Food , User Details&lt;/font&gt;" style="text;html=1;align=center;verticalAlign=middle;resizable=0;points=[];autosize=1;strokeColor=none;fillColor=none;" vertex="1" parent="1">
          <mxGeometry x="512" y="555" width="160" height="40" as="geometry" />
        </mxCell>
        <mxCell id="DeW3jYokZq_6ZPRdX_j8-43" value="&lt;font face=&quot;Times New Roman&quot; style=&quot;font-size: 18px;&quot;&gt;Confirmation&lt;/font&gt;" style="text;html=1;align=center;verticalAlign=middle;resizable=0;points=[];autosize=1;strokeColor=none;fillColor=none;" vertex="1" parent="1">
          <mxGeometry x="205" y="612" width="120" height="40" as="geometry" />
        </mxCell>
        <mxCell id="DeW3jYokZq_6ZPRdX_j8-44" value="" style="endArrow=classic;html=1;rounded=0;" edge="1" parent="1">
          <mxGeometry width="50" height="50" relative="1" as="geometry">
            <mxPoint x="480" y="568" as="sourcePoint" />
            <mxPoint x="710" y="582.95" as="targetPoint" />
            <Array as="points">
              <mxPoint x="480" y="585" />
              <mxPoint x="568" y="584.95" />
              <mxPoint x="650" y="584.95" />
            </Array>
          </mxGeometry>
        </mxCell>
        <mxCell id="DeW3jYokZq_6ZPRdX_j8-45" value="" style="endArrow=classic;html=1;rounded=0;" edge="1" parent="1">
          <mxGeometry width="50" height="50" relative="1" as="geometry">
            <mxPoint x="710" y="593" as="sourcePoint" />
            <mxPoint x="471" y="572" as="targetPoint" />
            <Array as="points">
              <mxPoint x="471" y="593" />
            </Array>
          </mxGeometry>
        </mxCell>
        <mxCell id="DeW3jYokZq_6ZPRdX_j8-46" value="" style="endArrow=none;html=1;rounded=0;" edge="1" parent="1">
          <mxGeometry width="50" height="50" relative="1" as="geometry">
            <mxPoint x="723" y="670" as="sourcePoint" />
            <mxPoint x="813" y="670" as="targetPoint" />
          </mxGeometry>
        </mxCell>
        <mxCell id="DeW3jYokZq_6ZPRdX_j8-47" value="" style="endArrow=none;html=1;rounded=0;" edge="1" parent="1">
          <mxGeometry width="50" height="50" relative="1" as="geometry">
            <mxPoint x="723" y="720" as="sourcePoint" />
            <mxPoint x="813" y="720" as="targetPoint" />
          </mxGeometry>
        </mxCell>
        <mxCell id="DeW3jYokZq_6ZPRdX_j8-48" value="&lt;font face=&quot;Times New Roman&quot; style=&quot;font-size: 18px;&quot;&gt;Payment&lt;/font&gt;" style="text;html=1;align=center;verticalAlign=middle;resizable=0;points=[];autosize=1;strokeColor=none;fillColor=none;" vertex="1" parent="1">
          <mxGeometry x="719" y="675" width="90" height="40" as="geometry" />
        </mxCell>
        <mxCell id="DeW3jYokZq_6ZPRdX_j8-49" value="" style="endArrow=classic;html=1;rounded=0;exitX=0.392;exitY=1.05;exitDx=0;exitDy=0;exitPerimeter=0;" edge="1" parent="1">
          <mxGeometry width="50" height="50" relative="1" as="geometry">
            <mxPoint x="459.99999999999994" y="574.99" as="sourcePoint" />
            <mxPoint x="710" y="700" as="targetPoint" />
            <Array as="points">
              <mxPoint x="462" y="700" />
              <mxPoint x="540" y="700" />
            </Array>
          </mxGeometry>
        </mxCell>
        <mxCell id="DeW3jYokZq_6ZPRdX_j8-51" value="" style="endArrow=classic;html=1;rounded=0;entryX=0.25;entryY=1;entryDx=0;entryDy=0;" edge="1" parent="1" target="DeW3jYokZq_6ZPRdX_j8-5">
          <mxGeometry width="50" height="50" relative="1" as="geometry">
            <mxPoint x="430" y="580" as="sourcePoint" />
            <mxPoint x="450" y="580" as="targetPoint" />
            <Array as="points">
              <mxPoint x="430" y="710" />
              <mxPoint x="90" y="710" />
            </Array>
          </mxGeometry>
        </mxCell>
        <mxCell id="DeW3jYokZq_6ZPRdX_j8-52" value="" style="endArrow=classic;html=1;rounded=0;" edge="1" parent="1">
          <mxGeometry width="50" height="50" relative="1" as="geometry">
            <mxPoint x="710" y="710" as="sourcePoint" />
            <mxPoint x="450" y="580" as="targetPoint" />
            <Array as="points">
              <mxPoint x="450" y="710" />
            </Array>
          </mxGeometry>
        </mxCell>
        <mxCell id="DeW3jYokZq_6ZPRdX_j8-53" value="" style="endArrow=classic;html=1;rounded=0;" edge="1" parent="1">
          <mxGeometry width="50" height="50" relative="1" as="geometry">
            <mxPoint x="100" y="580" as="sourcePoint" />
            <mxPoint x="423" y="579" as="targetPoint" />
            <Array as="points">
              <mxPoint x="100" y="700" />
              <mxPoint x="423" y="700" />
            </Array>
          </mxGeometry>
        </mxCell>
        <mxCell id="DeW3jYokZq_6ZPRdX_j8-54" value="&lt;font face=&quot;Times New Roman&quot; style=&quot;font-size: 18px;&quot;&gt;User , Food , Payment Details&lt;/font&gt;" style="text;html=1;align=center;verticalAlign=middle;resizable=0;points=[];autosize=1;strokeColor=none;fillColor=none;" vertex="1" parent="1">
          <mxGeometry x="136" y="669" width="240" height="40" as="geometry" />
        </mxCell>
        <mxCell id="DeW3jYokZq_6ZPRdX_j8-55" value="&lt;font face=&quot;Times New Roman&quot; style=&quot;font-size: 18px;&quot;&gt;Bill&lt;/font&gt;" style="text;html=1;align=center;verticalAlign=middle;resizable=0;points=[];autosize=1;strokeColor=none;fillColor=none;" vertex="1" parent="1">
          <mxGeometry x="214" y="705" width="50" height="40" as="geometry" />
        </mxCell>
        <mxCell id="DeW3jYokZq_6ZPRdX_j8-56" value="&lt;font face=&quot;Times New Roman&quot; style=&quot;font-size: 18px;&quot;&gt;User , Food , Payment Details&lt;/font&gt;" style="text;html=1;align=center;verticalAlign=middle;resizable=0;points=[];autosize=1;strokeColor=none;fillColor=none;" vertex="1" parent="1">
          <mxGeometry x="462" y="669" width="240" height="40" as="geometry" />
        </mxCell>
      </root>
    </mxGraphModel>
  </diagram>
</mxfile>
